<mxfile host="app.diagrams.net" modified="2023-06-09T09:23:39.565Z" agent="Mozilla/5.0 (Windows NT 10.0; Win64; x64) AppleWebKit/537.36 (KHTML, like Gecko) Chrome/114.0.0.0 Safari/537.36" etag="6Ddn-XVGXml-C33Uuua5" version="21.3.8" type="device">
  <diagram name="Page-1" id="vouiujqwLbQ1SjZ8EXrM">
    <mxGraphModel dx="1050" dy="585" grid="1" gridSize="10" guides="1" tooltips="1" connect="1" arrows="1" fold="1" page="1" pageScale="1" pageWidth="827" pageHeight="1169" math="0" shadow="0">
      <root>
        <mxCell id="0" />
        <mxCell id="1" parent="0" />
        <mxCell id="zjAAmlXx1aQwciowHxv7-1" value="" style="rounded=0;whiteSpace=wrap;html=1;" parent="1" vertex="1">
          <mxGeometry x="316" y="40" width="196" height="460" as="geometry" />
        </mxCell>
        <mxCell id="zjAAmlXx1aQwciowHxv7-2" value="Korisnik" style="shape=umlActor;verticalLabelPosition=bottom;verticalAlign=top;html=1;outlineConnect=0;" parent="1" vertex="1">
          <mxGeometry x="60" y="140" width="30" height="60" as="geometry" />
        </mxCell>
        <mxCell id="zjAAmlXx1aQwciowHxv7-4" value="Administrator" style="shape=umlActor;verticalLabelPosition=bottom;verticalAlign=top;html=1;outlineConnect=0;" parent="1" vertex="1">
          <mxGeometry x="190" y="310" width="30" height="60" as="geometry" />
        </mxCell>
        <mxCell id="zjAAmlXx1aQwciowHxv7-6" value="Naplatni&lt;br&gt;sustav" style="shape=umlActor;verticalLabelPosition=bottom;verticalAlign=top;html=1;outlineConnect=0;" parent="1" vertex="1">
          <mxGeometry x="610" y="100" width="30" height="60" as="geometry" />
        </mxCell>
        <mxCell id="zjAAmlXx1aQwciowHxv7-8" value="Registrirani&lt;br&gt;korisnik&lt;br&gt;" style="shape=umlActor;verticalLabelPosition=bottom;verticalAlign=top;html=1;outlineConnect=0;" parent="1" vertex="1">
          <mxGeometry x="190" y="60" width="30" height="60" as="geometry" />
        </mxCell>
        <mxCell id="zjAAmlXx1aQwciowHxv7-10" value="Korisnik&lt;br&gt;gost" style="shape=umlActor;verticalLabelPosition=bottom;verticalAlign=top;html=1;outlineConnect=0;" parent="1" vertex="1">
          <mxGeometry x="190" y="170" width="30" height="60" as="geometry" />
        </mxCell>
        <mxCell id="zjAAmlXx1aQwciowHxv7-16" value="" style="endArrow=none;html=1;rounded=0;" parent="1" target="zjAAmlXx1aQwciowHxv7-8" edge="1">
          <mxGeometry width="50" height="50" relative="1" as="geometry">
            <mxPoint x="100" y="160" as="sourcePoint" />
            <mxPoint x="500" y="220" as="targetPoint" />
          </mxGeometry>
        </mxCell>
        <mxCell id="zjAAmlXx1aQwciowHxv7-20" value="" style="endArrow=none;html=1;rounded=0;" parent="1" target="zjAAmlXx1aQwciowHxv7-10" edge="1">
          <mxGeometry width="50" height="50" relative="1" as="geometry">
            <mxPoint x="100" y="160" as="sourcePoint" />
            <mxPoint x="500" y="220" as="targetPoint" />
          </mxGeometry>
        </mxCell>
        <mxCell id="zjAAmlXx1aQwciowHxv7-21" value="Digital Game Store" style="text;html=1;strokeColor=none;fillColor=none;align=center;verticalAlign=middle;whiteSpace=wrap;rounded=0;" parent="1" vertex="1">
          <mxGeometry x="316" y="40" width="194" height="30" as="geometry" />
        </mxCell>
        <mxCell id="zjAAmlXx1aQwciowHxv7-44" value="Upravljanje&lt;br&gt;korisnicima" style="ellipse;whiteSpace=wrap;html=1;" parent="1" vertex="1">
          <mxGeometry x="364" y="80" width="100" height="50" as="geometry" />
        </mxCell>
        <mxCell id="zjAAmlXx1aQwciowHxv7-45" value="Upravljanje&lt;br&gt;igrama" style="ellipse;whiteSpace=wrap;html=1;" parent="1" vertex="1">
          <mxGeometry x="364" y="170" width="100" height="50" as="geometry" />
        </mxCell>
        <mxCell id="zjAAmlXx1aQwciowHxv7-46" value="Upravljanje&lt;br&gt;transakcijama" style="ellipse;whiteSpace=wrap;html=1;" parent="1" vertex="1">
          <mxGeometry x="364" y="260" width="100" height="50" as="geometry" />
        </mxCell>
        <mxCell id="zjAAmlXx1aQwciowHxv7-47" value="Upravljanje&lt;br&gt;recenzijama" style="ellipse;whiteSpace=wrap;html=1;" parent="1" vertex="1">
          <mxGeometry x="363" y="350" width="100" height="50" as="geometry" />
        </mxCell>
        <mxCell id="zjAAmlXx1aQwciowHxv7-48" value="" style="endArrow=none;html=1;rounded=0;entryX=0;entryY=0.5;entryDx=0;entryDy=0;" parent="1" source="zjAAmlXx1aQwciowHxv7-4" target="zjAAmlXx1aQwciowHxv7-44" edge="1">
          <mxGeometry width="50" height="50" relative="1" as="geometry">
            <mxPoint x="450" y="270" as="sourcePoint" />
            <mxPoint x="500" y="220" as="targetPoint" />
          </mxGeometry>
        </mxCell>
        <mxCell id="zjAAmlXx1aQwciowHxv7-49" value="" style="endArrow=none;html=1;rounded=0;entryX=0;entryY=0.5;entryDx=0;entryDy=0;" parent="1" source="zjAAmlXx1aQwciowHxv7-4" target="zjAAmlXx1aQwciowHxv7-45" edge="1">
          <mxGeometry width="50" height="50" relative="1" as="geometry">
            <mxPoint x="450" y="270" as="sourcePoint" />
            <mxPoint x="500" y="220" as="targetPoint" />
          </mxGeometry>
        </mxCell>
        <mxCell id="zjAAmlXx1aQwciowHxv7-50" value="" style="endArrow=none;html=1;rounded=0;entryX=0;entryY=0.5;entryDx=0;entryDy=0;" parent="1" source="zjAAmlXx1aQwciowHxv7-4" target="zjAAmlXx1aQwciowHxv7-46" edge="1">
          <mxGeometry width="50" height="50" relative="1" as="geometry">
            <mxPoint x="450" y="270" as="sourcePoint" />
            <mxPoint x="500" y="220" as="targetPoint" />
          </mxGeometry>
        </mxCell>
        <mxCell id="zjAAmlXx1aQwciowHxv7-51" value="" style="endArrow=none;html=1;rounded=0;entryX=0;entryY=0.5;entryDx=0;entryDy=0;" parent="1" source="zjAAmlXx1aQwciowHxv7-4" target="zjAAmlXx1aQwciowHxv7-47" edge="1">
          <mxGeometry width="50" height="50" relative="1" as="geometry">
            <mxPoint x="450" y="270" as="sourcePoint" />
            <mxPoint x="500" y="220" as="targetPoint" />
          </mxGeometry>
        </mxCell>
        <mxCell id="wj-Pp1Gr1GSaa5x9XsHc-1" value="Vlasnik&lt;br&gt;sustava" style="shape=umlActor;verticalLabelPosition=bottom;verticalAlign=top;html=1;outlineConnect=0;" vertex="1" parent="1">
          <mxGeometry x="610" y="300" width="30" height="60" as="geometry" />
        </mxCell>
        <mxCell id="wj-Pp1Gr1GSaa5x9XsHc-3" value="Pregled izvjeÅ¡taja" style="ellipse;whiteSpace=wrap;html=1;" vertex="1" parent="1">
          <mxGeometry x="363" y="440" width="100" height="50" as="geometry" />
        </mxCell>
        <mxCell id="wj-Pp1Gr1GSaa5x9XsHc-4" value="" style="endArrow=none;html=1;rounded=0;exitX=1;exitY=0.5;exitDx=0;exitDy=0;" edge="1" parent="1" source="wj-Pp1Gr1GSaa5x9XsHc-3" target="wj-Pp1Gr1GSaa5x9XsHc-1">
          <mxGeometry width="50" height="50" relative="1" as="geometry">
            <mxPoint x="390" y="330" as="sourcePoint" />
            <mxPoint x="440" y="280" as="targetPoint" />
          </mxGeometry>
        </mxCell>
      </root>
    </mxGraphModel>
  </diagram>
</mxfile>
